<?xml version="1.0" encoding="UTF-8" standalone="no"?>
<!DOCTYPE svg PUBLIC "-//W3C//DTD SVG 1.1//EN" "http://www.w3.org/Graphics/SVG/1.1/DTD/svg11.dtd">
<svg width="100%" height="100%" viewBox="0 0 331 332" version="1.1" xmlns="http://www.w3.org/2000/svg" xmlns:xlink="http://www.w3.org/1999/xlink" xml:space="preserve" xmlns:serif="http://www.serif.com/" style="fill-rule:evenodd;clip-rule:evenodd;stroke-linejoin:round;stroke-miterlimit:2;">
    <g transform="matrix(1,0,0,1,-162,-189)">
        <g transform="matrix(1,0,0,1,14,120.372679)">
            <g transform="matrix(2.585937,0,0,2.585937,148,-1545.907468)">
                <path d="M128,646.757L128,730.235C128,742.521 118.025,752.496 105.739,752.496L22.261,752.496C9.975,752.496 0,742.521 0,730.235L0,646.757C0,634.471 9.975,624.496 22.261,624.496L105.739,624.496C118.025,624.496 128,634.471 128,646.757Z" style="fill:rgb(13,13,13);"/>
            </g>
            <g transform="matrix(2.480143,0,0,2.480143,-270.37599,-766.081987)">
                <g transform="matrix(74.6737,0,0,75.036842,187.063345,399.602126)">
                    <path d="M1.141,-0.378L0.333,-0.378L0.333,-0.378C0.295,-0.378 0.257,-0.363 0.227,-0.335C0.227,-0.335 0.106,-0.216 0.105,-0.215L0.104,-0.214L0.104,-0.214C0.065,-0.174 0.044,-0.117 0.052,-0.055C0.063,0.029 0.132,0.098 0.216,0.108C0.311,0.12 0.394,0.063 0.422,-0.02L0.422,-0.02L0.427,-0.033L0.503,-0.238C0.516,-0.275 0.551,-0.299 0.591,-0.299L0.829,-0.299C0.858,-0.299 0.886,-0.286 0.904,-0.263L1.011,-0.125C1.011,-0.125 1.011,-0.125 1.011,-0.125C1.044,-0.079 1.1,-0.051 1.162,-0.059C1.234,-0.068 1.292,-0.127 1.3,-0.199C1.311,-0.296 1.235,-0.378 1.141,-0.378Z" style="fill:rgb(224,224,224);fill-rule:nonzero;"/>
                </g>
            </g>
            <g transform="matrix(2.480143,0,0,2.480143,-270.37599,-655.272634)">
                <g transform="matrix(74.6737,0,0,75.036842,187.063345,399.602126)">
                    <path d="M1.135,-0.496L1.135,-0.496L0.879,-0.781L0.879,-0.781C0.853,-0.812 0.813,-0.83 0.77,-0.825C0.715,-0.818 0.67,-0.774 0.663,-0.719C0.66,-0.693 0.665,-0.67 0.675,-0.649L0.675,-0.649L0.74,-0.489C0.75,-0.464 0.731,-0.435 0.703,-0.435L0.215,-0.435C0.127,-0.435 0.052,-0.367 0.05,-0.278C0.048,-0.189 0.121,-0.115 0.21,-0.115L0.706,-0.115C0.727,-0.115 0.746,-0.13 0.748,-0.151C0.75,-0.175 0.732,-0.195 0.708,-0.195C0.634,-0.206 0.563,-0.232 0.498,-0.271L0.477,-0.284C0.443,-0.305 0.458,-0.357 0.497,-0.357L0.73,-0.357C0.768,-0.357 0.803,-0.334 0.817,-0.298L0.82,-0.291C0.851,-0.218 0.926,-0.168 1.012,-0.174C1.1,-0.181 1.173,-0.25 1.186,-0.338C1.194,-0.399 1.173,-0.456 1.135,-0.496Z" style="fill:rgb(224,224,224);fill-rule:nonzero;"/>
                </g>
            </g>
        </g>
    </g>
</svg>
