<?xml version="1.0" encoding="UTF-8" standalone="no"?>
<!DOCTYPE svg PUBLIC "-//W3C//DTD SVG 1.1//EN" "http://www.w3.org/Graphics/SVG/1.1/DTD/svg11.dtd">
<svg width="100%" height="100%" viewBox="0 0 128 128" version="1.1" xmlns="http://www.w3.org/2000/svg" xmlns:xlink="http://www.w3.org/1999/xlink" xml:space="preserve" xmlns:serif="http://www.serif.com/" style="fill-rule:evenodd;clip-rule:evenodd;stroke-linejoin:round;stroke-miterlimit:2;">
    <g transform="matrix(1,0,0,1,-434.2,0)">
        <g id="Artboard1" transform="matrix(0.919152,0,0,0.919152,196.233,0)">
            <rect x="258.899" y="0" width="139.259" height="139.259" style="fill:none;"/>
            <g transform="matrix(1.4434,0,0,1.4434,-14.288,-512.694)">
                <path d="M272.26,371.248L211.964,371.248L211.96,371.252C209.079,371.264 206.225,372.365 204.046,374.5L195.111,383.251C195.042,383.318 194.972,383.384 194.904,383.453L194.849,383.507L194.853,383.509C191.935,386.516 190.314,390.799 190.924,395.452C191.757,401.815 196.886,406.935 203.222,407.732C210.288,408.621 216.484,404.308 218.571,398.096L218.577,398.099L218.94,397.094L224.602,381.749C225.619,378.989 228.24,377.158 231.17,377.158L249.004,377.158C251.17,377.158 253.213,378.164 254.54,379.883L262.536,390.246C262.536,390.246 262.542,390.238 262.543,390.237C264.996,393.679 269.203,395.775 273.859,395.167C279.222,394.467 283.532,390.053 284.137,384.652C284.948,377.395 279.319,371.248 272.26,371.248Z" style="fill:rgb(224,224,224);fill-rule:nonzero;"/>
            </g>
            <g transform="matrix(1.4434,0,0,1.4434,-14.288,-448.204)">
                <path d="M271.826,362.393L271.837,362.386L252.69,340.97L252.689,340.97C250.794,338.676 247.809,337.322 244.532,337.712C240.421,338.201 237.087,341.56 236.574,345.687C236.341,347.569 236.693,349.344 237.448,350.884L237.441,350.889L242.29,362.888C243.069,364.817 241.658,366.925 239.587,366.925L203.146,366.925C196.566,366.925 190.92,372.099 190.799,378.711C190.676,385.448 196.073,390.948 202.751,390.948L239.791,390.948C241.346,390.948 242.762,389.824 242.917,388.27C243.097,386.482 241.703,384.976 239.961,384.976C234.404,384.122 229.07,382.172 224.266,379.237L222.691,378.273C220.168,376.731 221.257,372.834 224.207,372.834L241.595,372.834C244.445,372.834 247.013,374.57 248.085,377.226L248.306,377.776C250.606,383.276 256.218,387.031 262.633,386.519C269.214,385.991 274.689,380.828 275.591,374.255C276.224,369.65 274.663,365.409 271.826,362.393Z" style="fill:rgb(224,224,224);fill-rule:nonzero;"/>
            </g>
        </g>
    </g>
</svg>
