<?xml version="1.0" encoding="UTF-8" standalone="no"?>
<!DOCTYPE svg PUBLIC "-//W3C//DTD SVG 1.1//EN" "http://www.w3.org/Graphics/SVG/1.1/DTD/svg11.dtd">
<svg width="100%" height="100%" viewBox="0 0 539 128" version="1.1" xmlns="http://www.w3.org/2000/svg" xmlns:xlink="http://www.w3.org/1999/xlink" xml:space="preserve" xmlns:serif="http://www.serif.com/" style="fill-rule:evenodd;clip-rule:evenodd;stroke-linejoin:round;stroke-miterlimit:2;">
    <g transform="matrix(1,0,0,1,-607.127,-162.835)">
        <g id="Artboard1" transform="matrix(3.86571,0,0,0.919152,-393.704,162.835)">
            <rect x="258.899" y="0" width="139.259" height="139.259" style="fill:none;"/>
            <g transform="matrix(1.04772,0,0,1,-12.3534,0)">
                <g transform="matrix(0.327569,0,0,1.4434,196.902,-512.694)">
                    <path d="M272.26,371.248L211.964,371.248L211.96,371.252C209.079,371.264 206.225,372.365 204.046,374.5L195.111,383.251C195.042,383.318 194.972,383.384 194.904,383.453L194.849,383.507L194.853,383.509C191.935,386.516 190.314,390.799 190.924,395.452C191.757,401.815 196.886,406.935 203.222,407.732C210.288,408.621 216.484,404.308 218.571,398.096L218.577,398.099L218.94,397.094L224.602,381.749C225.619,378.989 228.24,377.158 231.17,377.158L249.004,377.158C251.17,377.158 253.213,378.164 254.54,379.883L262.536,390.246C262.536,390.246 262.542,390.238 262.543,390.237C264.996,393.679 269.203,395.775 273.859,395.167C279.222,394.467 283.532,390.053 284.137,384.652C284.948,377.395 279.319,371.248 272.26,371.248Z" style="fill:rgb(224,224,224);fill-rule:nonzero;"/>
                </g>
                <g transform="matrix(0.327569,0,0,1.4434,196.902,-448.204)">
                    <path d="M271.826,362.393L271.837,362.386L252.69,340.97L252.689,340.97C250.794,338.676 247.809,337.322 244.532,337.712C240.421,338.201 237.087,341.56 236.574,345.687C236.341,347.569 236.693,349.344 237.448,350.884L237.441,350.889L242.29,362.888C243.069,364.817 241.658,366.925 239.587,366.925L203.146,366.925C196.566,366.925 190.92,372.099 190.799,378.711C190.676,385.448 196.073,390.948 202.751,390.948L239.791,390.948C241.346,390.948 242.762,389.824 242.917,388.27C243.097,386.482 241.703,384.976 239.961,384.976C234.404,384.122 229.07,382.172 224.266,379.237L222.691,378.273C220.168,376.731 221.257,372.834 224.207,372.834L241.595,372.834C244.445,372.834 247.013,374.57 248.085,377.226L248.306,377.776C250.606,383.276 256.218,387.031 262.633,386.519C269.214,385.991 274.689,380.828 275.591,374.255C276.224,369.65 274.663,365.409 271.826,362.393Z" style="fill:rgb(224,224,224);fill-rule:nonzero;"/>
                </g>
                <g transform="matrix(1.12039,0,0,4.93689,89.3035,-2489.9)">
                    <path d="M186.28,514.382L186.28,522.386L188.704,522.386L188.704,520.37L192.436,520.37C192.764,520.37 192.996,520.38 193.132,520.4C193.268,520.42 193.384,520.462 193.48,520.526C193.592,520.606 193.67,520.712 193.714,520.844C193.758,520.976 193.78,521.158 193.78,521.39L193.78,522.386L196.252,522.386L196.252,521.126C196.252,520.782 196.226,520.51 196.174,520.31C196.122,520.11 196.036,519.942 195.916,519.806C195.796,519.662 195.638,519.56 195.442,519.5C195.246,519.44 194.94,519.398 194.524,519.374C194.492,519.374 194.44,519.372 194.368,519.368C194.296,519.364 194.216,519.358 194.128,519.35C194.4,519.31 194.63,519.272 194.818,519.236C195.006,519.2 195.166,519.16 195.298,519.116C195.43,519.072 195.538,519.024 195.622,518.972C195.706,518.92 195.784,518.858 195.856,518.786C196.192,518.426 196.36,517.822 196.36,516.974C196.36,516.35 196.278,515.85 196.114,515.474C195.95,515.098 195.692,514.83 195.34,514.67C195.22,514.614 195.094,514.568 194.962,514.532C194.83,514.496 194.68,514.466 194.512,514.442C194.344,514.418 194.152,514.402 193.936,514.394C193.72,514.386 193.468,514.382 193.18,514.382L186.28,514.382ZM192.508,518.414L188.704,518.414L188.704,516.35L192.592,516.35C192.776,516.35 192.928,516.352 193.048,516.356C193.168,516.36 193.27,516.372 193.354,516.392C193.438,516.412 193.506,516.436 193.558,516.464C193.61,516.492 193.66,516.53 193.708,516.578C193.788,516.666 193.842,516.774 193.87,516.902C193.898,517.03 193.912,517.222 193.912,517.478C193.912,517.678 193.894,517.838 193.858,517.958C193.822,518.078 193.752,518.172 193.648,518.24C193.544,518.308 193.402,518.354 193.222,518.378C193.042,518.402 192.804,518.414 192.508,518.414Z" style="fill:rgb(224,224,224);fill-rule:nonzero;"/>
                    <path d="M203.368,521.39L203.368,522.386L205.432,522.386L205.432,518.582C205.432,518.502 205.43,518.438 205.426,518.39C205.422,518.342 205.418,518.304 205.414,518.276C205.41,518.248 205.404,518.214 205.396,518.174C205.348,517.91 205.258,517.68 205.126,517.484C204.994,517.288 204.832,517.134 204.64,517.022C204.512,516.95 204.37,516.892 204.214,516.848C204.058,516.804 203.874,516.766 203.662,516.734C203.45,516.702 203.204,516.68 202.924,516.668C202.644,516.656 202.32,516.65 201.952,516.65C201.488,516.65 201.096,516.656 200.776,516.668C200.456,516.68 200.18,516.7 199.948,516.728C199.716,516.756 199.52,516.794 199.36,516.842C199.2,516.89 199.052,516.95 198.916,517.022C198.628,517.182 198.422,517.362 198.298,517.562C198.174,517.762 198.104,518.046 198.088,518.414L200.152,518.414C200.16,518.31 200.182,518.228 200.218,518.168C200.254,518.108 200.32,518.062 200.416,518.03C200.512,517.998 200.652,517.978 200.836,517.97C201.02,517.962 201.268,517.958 201.58,517.958C201.964,517.958 202.27,517.968 202.498,517.988C202.726,518.008 202.9,518.05 203.02,518.114C203.14,518.178 203.218,518.274 203.254,518.402C203.29,518.53 203.308,518.702 203.308,518.918L203.308,519.53C203.26,519.394 203.192,519.282 203.104,519.194C203.016,519.106 202.896,519.034 202.744,518.978C202.592,518.922 202.4,518.884 202.168,518.864C201.936,518.844 201.648,518.834 201.304,518.834C201,518.834 200.738,518.836 200.518,518.84C200.298,518.844 200.102,518.85 199.93,518.858C199.758,518.866 199.606,518.878 199.474,518.894C199.342,518.91 199.216,518.93 199.096,518.954C198.656,519.042 198.338,519.224 198.142,519.5C197.946,519.776 197.848,520.178 197.848,520.706C197.848,521.074 197.89,521.376 197.974,521.612C198.058,521.848 198.208,522.032 198.424,522.164C198.64,522.296 198.938,522.388 199.318,522.44C199.698,522.492 200.184,522.518 200.776,522.518C201.232,522.518 201.61,522.502 201.91,522.47C202.21,522.438 202.456,522.38 202.648,522.296C202.84,522.212 202.99,522.098 203.098,521.954C203.206,521.81 203.296,521.622 203.368,521.39ZM201.52,519.986C201.896,519.986 202.204,519.994 202.444,520.01C202.684,520.026 202.87,520.056 203.002,520.1C203.134,520.144 203.224,520.206 203.272,520.286C203.32,520.366 203.344,520.47 203.344,520.598C203.344,520.726 203.308,520.84 203.236,520.94C203.164,521.04 203.068,521.106 202.948,521.138C202.828,521.178 202.678,521.204 202.498,521.216C202.318,521.228 202.048,521.234 201.688,521.234C201.312,521.234 201.042,521.232 200.878,521.228C200.714,521.224 200.596,521.214 200.524,521.198C200.1,521.126 199.888,520.93 199.888,520.61C199.888,520.49 199.912,520.39 199.96,520.31C200.008,520.23 200.094,520.166 200.218,520.118C200.342,520.07 200.508,520.036 200.716,520.016C200.924,519.996 201.192,519.986 201.52,519.986Z" style="fill:rgb(224,224,224);fill-rule:nonzero;"/>
                    <path d="M212.98,521.162L212.98,522.386L214.972,522.386L214.972,514.382L212.908,514.382L212.908,517.754C212.74,517.482 212.594,517.286 212.47,517.166C212.346,517.046 212.188,516.95 211.996,516.878C211.588,516.726 211.004,516.65 210.244,516.65C209.132,516.65 208.312,516.806 207.784,517.118C207.624,517.214 207.492,517.328 207.388,517.46C207.284,517.592 207.2,517.758 207.136,517.958C207.072,518.158 207.026,518.398 206.998,518.678C206.97,518.958 206.956,519.29 206.956,519.674C206.956,520.034 206.968,520.344 206.992,520.604C207.016,520.864 207.058,521.084 207.118,521.264C207.178,521.444 207.256,521.596 207.352,521.72C207.448,521.844 207.572,521.954 207.724,522.05C207.956,522.202 208.306,522.318 208.774,522.398C209.242,522.478 209.796,522.518 210.436,522.518C210.868,522.518 211.222,522.492 211.498,522.44C211.774,522.388 212.012,522.306 212.212,522.194C212.308,522.138 212.394,522.08 212.47,522.02C212.546,521.96 212.612,521.892 212.668,521.816C212.724,521.74 212.778,521.648 212.83,521.54C212.882,521.432 212.932,521.306 212.98,521.162ZM210.904,518.186C211.36,518.186 211.722,518.2 211.99,518.228C212.258,518.256 212.462,518.32 212.602,518.42C212.742,518.52 212.834,518.664 212.878,518.852C212.922,519.04 212.944,519.294 212.944,519.614C212.944,519.918 212.918,520.158 212.866,520.334C212.814,520.51 212.728,520.646 212.608,520.742C212.496,520.83 212.308,520.892 212.044,520.928C211.78,520.964 211.412,520.982 210.94,520.982C210.524,520.982 210.192,520.968 209.944,520.94C209.696,520.912 209.506,520.85 209.374,520.754C209.242,520.658 209.154,520.52 209.11,520.34C209.066,520.16 209.044,519.922 209.044,519.626C209.044,519.29 209.07,519.036 209.122,518.864C209.174,518.692 209.268,518.55 209.404,518.438C209.46,518.39 209.524,518.348 209.596,518.312C209.668,518.276 209.762,518.25 209.878,518.234C209.994,518.218 210.134,518.206 210.298,518.198C210.462,518.19 210.664,518.186 210.904,518.186Z" style="fill:rgb(224,224,224);fill-rule:nonzero;"/>
                    <path d="M216.736,516.782L216.736,522.386L218.8,522.386L218.8,516.782L216.736,516.782ZM216.736,514.382L216.736,515.882L218.8,515.882L218.8,514.382L216.736,514.382Z" style="fill:rgb(224,224,224);fill-rule:nonzero;"/>
                    <path d="M224.296,516.65C223.536,516.65 222.916,516.678 222.436,516.734C221.956,516.79 221.576,516.882 221.296,517.01C221.104,517.098 220.946,517.204 220.822,517.328C220.698,517.452 220.6,517.61 220.528,517.802C220.456,517.994 220.404,518.232 220.372,518.516C220.34,518.8 220.324,519.146 220.324,519.554C220.324,519.938 220.334,520.262 220.354,520.526C220.374,520.79 220.408,521.012 220.456,521.192C220.504,521.372 220.57,521.52 220.654,521.636C220.738,521.752 220.848,521.862 220.984,521.966C221.112,522.07 221.266,522.156 221.446,522.224C221.626,522.292 221.842,522.348 222.094,522.392C222.346,522.436 222.644,522.468 222.988,522.488C223.332,522.508 223.736,522.518 224.2,522.518C224.344,522.518 224.5,522.516 224.668,522.512C224.836,522.508 225.002,522.502 225.166,522.494C225.33,522.486 225.49,522.478 225.646,522.47C225.802,522.462 225.94,522.454 226.06,522.446C226.244,522.43 226.406,522.412 226.546,522.392C226.686,522.372 226.812,522.346 226.924,522.314C227.036,522.282 227.138,522.246 227.23,522.206C227.322,522.166 227.416,522.114 227.512,522.05C227.68,521.954 227.816,521.844 227.92,521.72C228.024,521.596 228.106,521.438 228.166,521.246C228.226,521.054 228.266,520.812 228.286,520.52C228.306,520.228 228.316,519.866 228.316,519.434C228.316,518.97 228.302,518.616 228.274,518.372C228.246,518.128 228.192,517.918 228.112,517.742C228,517.51 227.822,517.312 227.578,517.148C227.334,516.984 227.044,516.87 226.708,516.806C226.42,516.758 226.062,516.72 225.634,516.692C225.206,516.664 224.76,516.65 224.296,516.65ZM224.284,518.174C224.724,518.174 225.074,518.188 225.334,518.216C225.594,518.244 225.79,518.308 225.922,518.408C226.054,518.508 226.14,518.654 226.18,518.846C226.22,519.038 226.24,519.294 226.24,519.614C226.24,519.918 226.22,520.162 226.18,520.346C226.14,520.53 226.054,520.67 225.922,520.766C225.79,520.862 225.6,520.924 225.352,520.952C225.104,520.98 224.772,520.994 224.356,520.994C223.924,520.994 223.578,520.98 223.318,520.952C223.058,520.924 222.86,520.86 222.724,520.76C222.588,520.66 222.5,520.516 222.46,520.328C222.42,520.14 222.4,519.886 222.4,519.566C222.4,519.27 222.422,519.03 222.466,518.846C222.51,518.662 222.598,518.52 222.73,518.42C222.862,518.32 223.052,518.254 223.3,518.222C223.548,518.19 223.876,518.174 224.284,518.174Z" style="fill:rgb(224,224,224);fill-rule:nonzero;"/>
                    <path d="M230.008,514.382L230.008,522.386L237.244,522.386C237.46,522.386 237.646,522.384 237.802,522.38C237.958,522.376 238.1,522.37 238.228,522.362C238.356,522.354 238.474,522.342 238.582,522.326C238.69,522.31 238.8,522.29 238.912,522.266C239.128,522.226 239.332,522.15 239.524,522.038C239.716,521.926 239.886,521.788 240.034,521.624C240.182,521.46 240.304,521.274 240.4,521.066C240.496,520.858 240.56,520.634 240.592,520.394C240.632,520.162 240.662,519.86 240.682,519.488C240.702,519.116 240.712,518.75 240.712,518.39C240.712,518.198 240.708,517.978 240.7,517.73C240.692,517.482 240.68,517.266 240.664,517.082C240.624,516.57 240.552,516.17 240.448,515.882C240.344,515.594 240.18,515.342 239.956,515.126C239.82,514.99 239.664,514.874 239.488,514.778C239.312,514.682 239.104,514.604 238.864,514.544C238.624,514.484 238.346,514.442 238.03,514.418C237.714,514.394 237.344,514.382 236.92,514.382L230.008,514.382ZM236.92,520.478L232.444,520.478L232.444,516.374L236.572,516.374C236.924,516.374 237.21,516.4 237.43,516.452C237.65,516.504 237.822,516.606 237.946,516.758C238.07,516.91 238.154,517.118 238.198,517.382C238.242,517.646 238.264,517.986 238.264,518.402C238.264,518.746 238.252,519.034 238.228,519.266C238.204,519.498 238.164,519.69 238.108,519.842C238.052,519.994 237.976,520.11 237.88,520.19C237.784,520.27 237.664,520.334 237.52,520.382C237.448,520.406 237.386,520.424 237.334,520.436C237.282,520.448 237.224,520.458 237.16,520.466C237.096,520.474 237.016,520.478 236.92,520.478Z" style="fill:rgb(224,224,224);fill-rule:nonzero;"/>
                    <path d="M246.208,516.65C245.448,516.65 244.828,516.678 244.348,516.734C243.868,516.79 243.488,516.882 243.208,517.01C243.016,517.098 242.858,517.204 242.734,517.328C242.61,517.452 242.512,517.61 242.44,517.802C242.368,517.994 242.316,518.232 242.284,518.516C242.252,518.8 242.236,519.146 242.236,519.554C242.236,519.938 242.246,520.262 242.266,520.526C242.286,520.79 242.32,521.012 242.368,521.192C242.416,521.372 242.482,521.52 242.566,521.636C242.65,521.752 242.76,521.862 242.896,521.966C243.024,522.07 243.178,522.156 243.358,522.224C243.538,522.292 243.754,522.348 244.006,522.392C244.258,522.436 244.556,522.468 244.9,522.488C245.244,522.508 245.648,522.518 246.112,522.518C246.256,522.518 246.412,522.516 246.58,522.512C246.748,522.508 246.914,522.502 247.078,522.494C247.242,522.486 247.402,522.478 247.558,522.47C247.714,522.462 247.852,522.454 247.972,522.446C248.156,522.43 248.318,522.412 248.458,522.392C248.598,522.372 248.724,522.346 248.836,522.314C248.948,522.282 249.05,522.246 249.142,522.206C249.234,522.166 249.328,522.114 249.424,522.05C249.592,521.954 249.728,521.844 249.832,521.72C249.936,521.596 250.018,521.438 250.078,521.246C250.138,521.054 250.178,520.812 250.198,520.52C250.218,520.228 250.228,519.866 250.228,519.434C250.228,518.97 250.214,518.616 250.186,518.372C250.158,518.128 250.104,517.918 250.024,517.742C249.912,517.51 249.734,517.312 249.49,517.148C249.246,516.984 248.956,516.87 248.62,516.806C248.332,516.758 247.974,516.72 247.546,516.692C247.118,516.664 246.672,516.65 246.208,516.65ZM246.196,518.174C246.636,518.174 246.986,518.188 247.246,518.216C247.506,518.244 247.702,518.308 247.834,518.408C247.966,518.508 248.052,518.654 248.092,518.846C248.132,519.038 248.152,519.294 248.152,519.614C248.152,519.918 248.132,520.162 248.092,520.346C248.052,520.53 247.966,520.67 247.834,520.766C247.702,520.862 247.512,520.924 247.264,520.952C247.016,520.98 246.684,520.994 246.268,520.994C245.836,520.994 245.49,520.98 245.23,520.952C244.97,520.924 244.772,520.86 244.636,520.76C244.5,520.66 244.412,520.516 244.372,520.328C244.332,520.14 244.312,519.886 244.312,519.566C244.312,519.27 244.334,519.03 244.378,518.846C244.422,518.662 244.51,518.52 244.642,518.42C244.774,518.32 244.964,518.254 245.212,518.222C245.46,518.19 245.788,518.174 246.196,518.174Z" style="fill:rgb(224,224,224);fill-rule:nonzero;"/>
                    <path d="M257.152,518.93L259.252,518.93C259.244,518.474 259.182,518.1 259.066,517.808C258.95,517.516 258.748,517.284 258.46,517.112C258.172,516.94 257.782,516.82 257.29,516.752C256.798,516.684 256.176,516.65 255.424,516.65C254.64,516.65 254.008,516.688 253.528,516.764C253.048,516.84 252.68,516.962 252.424,517.13C252.112,517.338 251.882,517.642 251.734,518.042C251.586,518.442 251.512,518.97 251.512,519.626C251.512,520.218 251.576,520.698 251.704,521.066C251.832,521.434 252.036,521.722 252.316,521.93C252.452,522.034 252.612,522.122 252.796,522.194C252.98,522.266 253.2,522.326 253.456,522.374C253.712,522.422 254.01,522.456 254.35,522.476C254.69,522.496 255.08,522.506 255.52,522.506C256.256,522.506 256.866,522.47 257.35,522.398C257.834,522.326 258.22,522.202 258.508,522.026C258.796,521.85 259,521.614 259.12,521.318C259.24,521.022 259.304,520.65 259.312,520.202L257.2,520.202C257.184,520.362 257.146,520.492 257.086,520.592C257.026,520.692 256.93,520.77 256.798,520.826C256.666,520.882 256.49,520.922 256.27,520.946C256.05,520.97 255.772,520.982 255.436,520.982C255.06,520.982 254.768,520.97 254.56,520.946C254.352,520.922 254.2,520.882 254.104,520.826C253.92,520.73 253.788,520.584 253.708,520.388C253.628,520.192 253.588,519.922 253.588,519.578C253.588,519.29 253.612,519.054 253.66,518.87C253.708,518.686 253.796,518.544 253.924,518.444C254.052,518.344 254.232,518.274 254.464,518.234C254.696,518.194 254.992,518.174 255.352,518.174C255.704,518.174 255.994,518.184 256.222,518.204C256.45,518.224 256.63,518.262 256.762,518.318C256.894,518.374 256.988,518.452 257.044,518.552C257.1,518.652 257.136,518.778 257.152,518.93Z" style="fill:rgb(224,224,224);fill-rule:nonzero;"/>
                    <path d="M260.716,514.382L260.716,522.386L262.78,522.386L262.78,520.118L263.344,520.118L265.636,522.386L268.42,522.386L265.096,519.398L267.988,516.782L265.228,516.782L263.272,518.654L262.78,518.654L262.78,514.382L260.716,514.382Z" style="fill:rgb(224,224,224);fill-rule:nonzero;"/>
                </g>
            </g>
        </g>
    </g>
</svg>
